<svg xmlns="http://www.w3.org/2000/svg" version="1.1" viewBox="2.093250036239624 1.2516928911209106 468.59515380859375 394.47576904296875" width="473.00" height="396.00">
<g stroke-width="2.00" fill="none" stroke-linecap="butt">
<path stroke="#bf9025" d="&#10;  M 433.22 65.87&#10;  Q 433.90 66.51 433.88 68.00&#10;  Q 433.81 74.55 433.48 80.97"/>
<path stroke="#e5cf58" d="&#10;  M 342.50 13.67&#10;  Q 341.72 16.81 341.80 20.92&#10;  Q 342.17 41.53 342.77 62.13&#10;  C 342.99 69.87 342.77 78.52 342.96 86.69"/>
<path stroke="#cca53b" d="&#10;  M 315.78 96.63&#10;  L 316.00 89.83"/>
<path stroke="#e5ca4f" d="&#10;  M 357.00 79.34&#10;  Q 357.74 84.06 356.66 88.89"/>
<path stroke="#cca53b" d="&#10;  M 279.99 110.77&#10;  Q 280.85 106.73 280.64 101.25&#10;  Q 280.60 100.32 279.94 99.90"/>
<path stroke="#cca53b" d="&#10;  M 267.55 106.29&#10;  L 266.89 114.86"/>
<path stroke="#cca53b" d="&#10;  M 212.89 148.26&#10;  L 212.45 146.74&#10;  Q 212.31 146.23 212.65 145.84&#10;  Q 213.40 144.95 213.73 143.82&#10;  Q 213.87 143.33 213.61 142.89&#10;  Q 212.18 140.49 211.83 138.43"/>
<path stroke="#cca53b" d="&#10;  M 107.26 276.46&#10;  Q 104.03 280.91 106.80 289.36"/>
<path stroke="#cca53b" d="&#10;  M 214.03 377.21&#10;  Q 215.76 377.05 217.59 378.38&#10;  C 218.45 379.00 218.80 378.78 219.66 378.93&#10;  Q 220.18 379.03 220.05 378.51&#10;  Q 219.82 377.57 220.38 377.47"/>
<path stroke="#cca53b" d="&#10;  M 97.97 281.71&#10;  Q 98.08 281.10 97.93 280.46"/>
<path stroke="#cca53b" d="&#10;  M 98.07 279.28&#10;  Q 99.33 274.80 99.14 270.13&#10;  A 0.73 0.72 14.4 0 0 98.79 269.55&#10;  L 98.50 269.39"/>
<path stroke="#cca53b" d="&#10;  M 102.68 242.14&#10;  Q 103.83 248.01 102.94 254.53&#10;  Q 102.72 256.11 104.93 258.45"/>
<path stroke="#e5cf58" d="&#10;  M 163.99 159.50&#10;  Q 167.44 157.98 168.33 154.97"/>
<path stroke="#b2811d" d="&#10;  M 98.04 278.51&#10;  Q 97.94 277.67 97.47 278.69"/>
<path stroke="#e5cf58" d="&#10;  M 187.32 130.04&#10;  Q 183.31 133.26 181.68 135.92&#10;  C 178.42 141.23 180.03 147.44 177.71 153.34&#10;  Q 177.53 153.81 177.03 153.85&#10;  Q 175.69 153.95 174.89 153.60"/>
<path stroke="#cda032" d="&#10;  M 84.80 243.59&#10;  L 81.15 235.25"/>
<path stroke="#cda032" d="&#10;  M 58.82 255.21&#10;  L 59.19 260.57"/>
<path stroke="#cca53b" d="&#10;  M 114.45 205.94&#10;  Q 115.94 202.87 116.05 199.74"/>
<path stroke="#cca53b" d="&#10;  M 117.27 186.34&#10;  Q 116.04 185.81 115.34 184.30&#10;  Q 115.13 183.84 114.68 183.59&#10;  L 111.94 182.00&#10;  A 1.62 1.61 36.3 0 1 111.55 179.51&#10;  L 111.91 179.12"/>
<path stroke="#cca53b" d="&#10;  M 111.33 174.06&#10;  Q 109.43 174.56 108.30 172.20"/>
<path stroke="#cca53b" d="&#10;  M 216.57 224.56&#10;  Q 219.88 229.32 224.25 230.07&#10;  Q 231.80 231.36 235.09 232.47"/>
<path stroke="#cca53b" d="&#10;  M 294.97 242.34&#10;  L 296.28 235.75"/>
</g>
<path fill="#d9af3a" d="&#10;  M 433.22 65.87&#10;  Q 433.90 66.51 433.88 68.00&#10;  Q 433.81 74.55 433.48 80.97&#10;  L 433.42 122.42&#10;  A 2.21 2.21 0.0 0 0 434.17 124.08&#10;  C 435.63 125.37 437.05 126.50 438.15 128.28&#10;  C 442.80 135.78 449.55 145.36 453.20 153.65&#10;  C 456.77 161.75 459.85 168.07 462.37 175.93&#10;  C 463.86 180.58 466.02 185.99 467.41 192.26&#10;  Q 472.86 216.77 469.25 244.02&#10;  Q 467.52 257.09 463.78 266.34&#10;  C 462.54 269.42 461.81 273.11 460.81 275.78&#10;  Q 453.77 294.59 442.80 310.55&#10;  Q 439.61 315.20 437.51 318.28&#10;  Q 434.72 322.37 431.82 325.65&#10;  Q 418.30 340.95 415.74 343.62&#10;  A 1.66 1.64 -59.0 0 1 414.07 344.05&#10;  Q 413.72 343.95 413.68 343.93&#10;  Q 411.43 342.74 413.26 340.82&#10;  Q 435.26 317.53 449.02 290.35&#10;  C 452.38 283.72 455.69 274.81 457.49 270.05&#10;  Q 459.41 264.98 461.89 255.41&#10;  Q 464.00 247.31 464.76 240.42&#10;  Q 466.13 228.06 465.57 216.36&#10;  Q 465.37 212.25 464.72 208.57&#10;  C 464.20 205.63 464.00 201.80 463.27 198.20&#10;  Q 458.65 175.47 448.02 153.10&#10;  Q 445.19 147.13 441.50 140.94&#10;  Q 438.46 135.85 434.77 128.67&#10;  Q 434.53 128.23 434.14 127.91&#10;  A 0.45 0.45 0.0 0 0 433.41 128.26&#10;  L 433.41 152.31&#10;  A 2.12 2.11 90.0 0 1 431.30 154.43&#10;  L 422.42 154.43&#10;  A 1.13 1.13 0.0 0 1 421.29 153.30&#10;  Q 421.36 121.26 421.27 114.54&#10;  Q 421.24 112.80 420.59 111.42&#10;  A 1.82 1.78 3.4 0 0 419.90 110.66&#10;  Q 415.61 108.04 412.64 103.78&#10;  Q 410.33 100.47 409.76 99.97&#10;  C 404.98 95.71 400.81 91.31 399.14 85.63&#10;  Q 397.66 80.55 397.31 75.07&#10;  Q 397.27 74.36 397.71 74.08&#10;  Q 398.20 73.77 398.45 74.28&#10;  C 400.13 77.72 405.26 80.04 408.59 81.38&#10;  A 1.01 1.01 0.0 0 0 409.98 80.45&#10;  L 409.98 4.24&#10;  A 1.90 1.90 0.0 0 1 411.31 2.43&#10;  Q 416.88 0.70 423.22 1.51&#10;  A 1.61 1.60 -86.4 0 1 424.62 3.11&#10;  L 424.62 64.91&#10;  A 0.72 0.72 0.0 0 0 425.32 65.63&#10;  L 433.22 65.87&#10;  Z&#10;  M 405.72 83.45&#10;  L 404.38 83.22&#10;  Q 402.32 82.86 403.23 84.65&#10;  Q 405.22 88.54 408.58 93.10&#10;  Q 409.38 94.19 414.56 99.81&#10;  Q 417.15 102.61 420.02 106.99&#10;  Q 420.16 107.21 420.28 107.35&#10;  A 0.56 0.55 -64.9 0 0 421.26 106.99&#10;  L 421.26 82.23&#10;  Q 421.26 80.58 420.36 81.96&#10;  Q 419.94 82.61 418.82 84.34&#10;  C 417.04 87.08 414.21 88.20 410.98 87.38&#10;  Q 410.36 87.23 408.89 85.35&#10;  Q 407.67 83.79 405.72 83.45&#10;  Z"/>
<path fill="#d8b94c" d="&#10;  M 342.50 13.67&#10;  Q 341.72 16.81 341.80 20.92&#10;  Q 342.17 41.53 342.77 62.13&#10;  C 342.99 69.87 342.77 78.52 342.96 86.69&#10;  Q 342.12 90.37 341.63 94.04&#10;  C 341.12 97.98 339.69 100.85 338.69 104.49&#10;  Q 337.62 108.42 335.15 112.54&#10;  A 1.31 1.30 -74.6 0 1 334.03 113.18&#10;  L 324.28 113.18&#10;  A 0.52 0.52 0.0 0 1 323.80 112.47&#10;  C 324.98 109.50 327.04 106.32 328.07 103.32&#10;  C 329.35 99.56 330.83 96.56 331.02 93.88&#10;  A 1.13 1.13 0.0 0 0 329.59 92.71&#10;  L 315.78 96.63&#10;  L 316.00 89.83&#10;  Q 325.44 86.45 328.32 86.04&#10;  C 332.97 85.37 332.59 82.74 332.61 79.04&#10;  Q 332.75 55.17 332.68 21.50&#10;  C 332.66 15.78 336.11 10.76 342.50 13.67&#10;  Z"/>
<path fill="#f1e464" d="&#10;  M 342.50 13.67&#10;  C 348.40 16.52 347.81 20.89 347.80 27.57&#10;  Q 347.80 63.94 347.90 73.77&#10;  C 347.95 78.27 354.25 79.35 357.00 79.34&#10;  Q 357.74 84.06 356.66 88.89&#10;  Q 356.23 93.02 356.23 97.00&#10;  Q 356.23 106.46 356.07 158.75&#10;  Q 356.07 159.56 355.24 161.45&#10;  C 352.85 166.90 347.40 163.83 344.89 160.30&#10;  Q 343.74 158.67 343.76 154.87&#10;  Q 343.94 130.92 343.20 99.18&#10;  Q 343.06 93.08 342.96 86.69&#10;  C 342.77 78.52 342.99 69.87 342.77 62.13&#10;  Q 342.17 41.53 341.80 20.92&#10;  Q 341.72 16.81 342.50 13.67&#10;  Z"/>
<path fill="#a47110" d="&#10;  M 429.50 20.65&#10;  Q 429.94 20.87 430.43 21.05&#10;  Q 430.98 21.25 430.39 21.30&#10;  Q 429.83 21.36 429.28 21.08&#10;  Q 428.73 20.80 428.43 20.32&#10;  Q 428.12 19.82 428.62 20.14&#10;  Q 429.05 20.42 429.50 20.65&#10;  Z"/>
<path fill="#a47110" d="&#10;  M 433.48 80.97&#10;  Q 433.81 74.55 433.88 68.00&#10;  Q 433.90 66.51 433.22 65.87&#10;  L 433.33 25.44&#10;  A 2.19 2.19 0.0 0 1 436.43 23.45&#10;  L 444.53 27.11&#10;  Q 445.05 27.34 445.25 27.88&#10;  Q 446.07 30.07 446.07 33.50&#10;  Q 446.09 46.36 446.04 80.00&#10;  A 1.04 1.04 0.0 0 1 445.00 81.04&#10;  L 433.48 80.97&#10;  Z"/>
<path fill="#d9af3a" d="&#10;  M 356.66 88.89&#10;  Q 357.74 84.06 357.00 79.34&#10;  L 358.34 77.86&#10;  Q 358.68 77.48 358.72 76.98&#10;  Q 358.87 75.07 358.87 73.19&#10;  Q 358.84 39.15 358.95 33.50&#10;  Q 358.98 31.73 360.65 31.50&#10;  C 364.06 31.05 366.88 31.88 368.30 35.29&#10;  Q 369.41 37.94 369.43 40.56&#10;  Q 369.56 61.26 369.24 77.10&#10;  Q 369.23 77.62 369.68 77.88&#10;  L 371.19 78.75&#10;  Q 371.60 78.99 371.65 79.45&#10;  C 371.99 82.22 372.25 85.79 374.02 87.85&#10;  A 0.56 0.55 69.3 0 1 373.61 88.77&#10;  L 356.66 88.89&#10;  Z"/>
<path fill="#c0912a" d="&#10;  M 267.55 106.29&#10;  L 266.89 114.86&#10;  Q 261.41 121.42 260.96 128.75&#10;  Q 260.88 129.98 261.79 134.26&#10;  Q 262.26 136.44 259.61 137.42&#10;  Q 255.26 139.02 251.04 136.94&#10;  Q 249.86 136.35 249.89 134.60&#10;  Q 250.03 126.68 253.61 120.39&#10;  A 0.84 0.80 50.2 0 0 253.66 119.67&#10;  Q 253.55 119.41 253.35 119.30&#10;  A 0.62 0.42 -48.7 0 0 252.73 119.46&#10;  C 251.87 120.27 250.18 122.44 248.81 123.23&#10;  Q 246.53 124.54 245.28 126.20&#10;  C 242.47 129.94 238.15 129.67 234.81 132.45&#10;  C 231.89 134.89 227.63 136.43 224.14 138.99&#10;  Q 218.23 143.33 212.89 148.26&#10;  L 212.45 146.74&#10;  Q 212.31 146.23 212.65 145.84&#10;  Q 213.40 144.95 213.73 143.82&#10;  Q 213.87 143.33 213.61 142.89&#10;  Q 212.18 140.49 211.83 138.43&#10;  Q 220.07 133.11 228.50 128.78&#10;  Q 232.58 126.69 234.53 125.07&#10;  C 236.99 123.02 239.89 122.09 242.35 119.76&#10;  Q 247.83 114.58 252.44 108.98&#10;  Q 255.04 105.82 255.00 101.54&#10;  Q 254.73 71.45 255.02 46.05&#10;  C 255.06 43.19 255.55 41.03 256.98 38.70&#10;  A 2.63 2.62 -78.0 0 1 258.85 37.48&#10;  Q 265.42 36.58 267.30 41.11&#10;  Q 268.11 43.05 268.09 48.99&#10;  Q 268.02 74.66 268.11 100.32&#10;  Q 268.12 101.42 267.83 103.28&#10;  Q 267.62 104.64 267.55 106.29&#10;  Z"/>
<path fill="#d9af3a" d="&#10;  M 401.51 74.29&#10;  Q 400.51 73.60 398.59 73.47&#10;  Q 398.07 73.43 397.78 73.01&#10;  C 394.80 68.74 394.30 62.74 393.30 58.27&#10;  Q 392.35 53.99 388.63 52.24&#10;  Q 388.12 52.00 388.29 51.47&#10;  Q 389.79 46.63 392.11 43.53&#10;  A 1.12 1.12 0.0 0 1 394.10 44.01&#10;  Q 394.64 47.11 396.65 54.31&#10;  C 398.04 59.31 400.99 64.08 403.24 68.81&#10;  Q 403.36 69.05 405.62 72.47&#10;  Q 407.00 74.54 407.07 77.77&#10;  Q 407.08 78.30 406.55 78.27&#10;  C 403.49 78.10 403.47 75.64 401.51 74.29&#10;  Z"/>
<path fill="#c0912a" d="&#10;  M 316.00 89.83&#10;  L 315.78 96.63&#10;  L 291.93 105.62&#10;  A 1.98 1.98 0.0 0 0 290.65 107.46&#10;  Q 290.57 113.33 290.54 119.42&#10;  C 290.52 121.69 289.87 123.49 287.19 122.96&#10;  C 281.67 121.86 280.70 116.01 280.84 111.19&#10;  Q 280.85 110.72 280.39 110.66&#10;  Q 280.20 110.64 279.99 110.77&#10;  Q 280.85 106.73 280.64 101.25&#10;  Q 280.60 100.32 279.94 99.90&#10;  Q 280.57 99.59 280.62 99.12&#10;  C 281.02 95.69 280.10 91.58 280.15 88.28&#10;  Q 280.22 82.97 280.01 76.66&#10;  C 279.84 71.47 280.12 68.63 276.39 65.72&#10;  A 0.53 0.53 0.0 0 1 276.53 64.81&#10;  L 290.28 59.66&#10;  A 0.67 0.67 0.0 0 1 291.19 60.29&#10;  L 291.19 96.29&#10;  A 0.71 0.71 0.0 0 0 292.10 96.97&#10;  L 316.00 89.83&#10;  Z"/>
<path fill="#f1e464" d="&#10;  M 187.32 130.04&#10;  Q 183.31 133.26 181.68 135.92&#10;  C 178.42 141.23 180.03 147.44 177.71 153.34&#10;  Q 177.53 153.81 177.03 153.85&#10;  Q 175.69 153.95 174.89 153.60&#10;  Q 172.38 147.97 172.97 140.67&#10;  Q 173.39 135.51 176.76 132.76&#10;  Q 177.35 132.28 177.37 130.50&#10;  Q 177.59 115.84 177.69 67.01&#10;  A 0.61 0.61 0.0 0 1 178.30 66.41&#10;  L 186.76 66.41&#10;  A 0.71 0.70 0.4 0 1 187.47 67.12&#10;  L 187.32 130.04&#10;  Z"/>
<path fill="#d8b94c" d="&#10;  M 211.83 138.43&#10;  Q 212.18 140.49 213.61 142.89&#10;  Q 213.87 143.33 213.73 143.82&#10;  Q 213.40 144.95 212.65 145.84&#10;  Q 212.31 146.23 212.45 146.74&#10;  L 212.89 148.26&#10;  C 208.11 151.13 206.68 156.48 204.66 159.89&#10;  Q 203.46 161.89 203.37 164.24&#10;  Q 203.17 169.15 200.43 174.66&#10;  C 198.23 179.06 196.02 182.82 192.03 185.00&#10;  C 190.21 186.00 187.83 186.45 185.77 185.30&#10;  Q 180.28 182.22 180.82 175.16&#10;  A 0.82 0.81 -11.9 0 0 179.62 174.38&#10;  Q 174.72 177.04 170.34 181.33&#10;  Q 158.50 192.94 150.11 203.85&#10;  Q 146.12 209.04 143.43 212.17&#10;  C 137.24 219.36 133.57 225.42 126.94 235.22&#10;  Q 125.79 236.93 123.95 240.54&#10;  C 120.84 246.65 115.26 252.74 113.37 258.33&#10;  Q 112.77 260.13 111.04 262.28&#10;  Q 110.87 262.49 110.75 263.01&#10;  Q 110.58 263.79 111.11 263.20&#10;  Q 112.07 262.13 112.45 261.93&#10;  Q 117.18 259.44 121.68 256.58&#10;  Q 126.49 253.51 129.10 252.37&#10;  C 132.61 250.85 135.58 248.86 139.30 247.25&#10;  Q 163.21 236.87 186.26 230.79&#10;  Q 195.28 228.41 204.89 227.07&#10;  A 1.50 1.49 88.6 0 0 206.18 225.71&#10;  C 206.58 220.74 208.45 215.23 211.80 211.70&#10;  Q 212.71 210.74 218.07 207.23&#10;  Q 222.09 204.59 225.99 200.00&#10;  Q 227.78 197.90 228.59 195.00&#10;  Q 229.03 193.42 227.72 194.41&#10;  Q 222.01 198.69 214.88 199.83&#10;  Q 211.78 200.32 208.39 197.86&#10;  Q 203.97 194.64 202.74 189.02&#10;  C 201.61 183.82 204.21 180.45 208.08 177.16&#10;  C 214.39 171.79 223.36 172.31 229.76 178.10&#10;  C 232.79 180.85 233.64 187.28 238.00 188.40&#10;  C 240.11 188.95 242.18 189.27 243.70 189.89&#10;  C 249.91 192.42 256.19 194.22 261.92 197.07&#10;  Q 268.66 200.41 273.53 203.74&#10;  Q 278.31 207.01 280.71 208.53&#10;  C 283.98 210.60 287.24 213.78 289.93 215.46&#10;  Q 295.49 218.92 299.83 222.90&#10;  Q 306.75 229.24 310.32 231.90&#10;  C 314.88 235.31 320.06 240.69 323.19 243.74&#10;  C 324.23 244.75 324.58 245.85 325.27 247.08&#10;  Q 325.51 247.52 325.96 247.76&#10;  Q 333.35 251.70 340.24 257.15&#10;  Q 342.72 259.10 344.33 261.07&#10;  Q 345.63 262.65 343.59 262.66&#10;  Q 323.19 262.82 308.18 262.88&#10;  C 306.12 262.89 303.58 263.34 300.93 263.38&#10;  Q 287.77 263.55 276.56 264.29&#10;  Q 262.55 265.20 246.14 263.32&#10;  Q 235.29 262.08 227.19 257.13&#10;  Q 220.27 252.92 217.58 251.29&#10;  Q 216.67 250.73 212.66 246.93&#10;  Q 210.06 244.46 208.86 241.82&#10;  Q 207.12 238.01 206.41 235.40&#10;  A 1.09 1.09 0.0 0 0 205.05 234.64&#10;  Q 198.89 236.48 194.74 237.13&#10;  Q 190.08 237.85 184.43 239.45&#10;  Q 164.16 245.19 155.09 248.20&#10;  Q 151.05 249.55 148.55 251.16&#10;  Q 146.10 252.74 143.20 253.63&#10;  C 139.15 254.86 133.57 258.44 130.98 259.56&#10;  Q 127.80 260.94 124.37 263.47&#10;  Q 120.94 266.01 115.37 268.62&#10;  Q 113.00 269.73 111.05 271.90&#10;  Q 109.16 274.01 107.26 276.46&#10;  Q 104.03 280.91 106.80 289.36&#10;  Q 108.44 297.21 110.09 305.32&#10;  C 111.00 309.81 113.33 315.62 115.99 319.32&#10;  Q 118.62 322.97 119.92 325.47&#10;  C 121.12 327.79 123.49 328.93 125.28 331.10&#10;  Q 126.86 333.02 129.27 335.08&#10;  Q 140.83 344.95 154.34 350.32&#10;  C 157.14 351.43 159.34 353.11 161.98 354.22&#10;  Q 176.79 360.47 191.73 366.43&#10;  Q 196.80 368.45 202.97 371.61&#10;  Q 208.43 374.41 214.03 377.21&#10;  Q 215.76 377.05 217.59 378.38&#10;  C 218.45 379.00 218.80 378.78 219.66 378.93&#10;  Q 220.18 379.03 220.05 378.51&#10;  Q 219.82 377.57 220.38 377.47&#10;  Q 223.99 379.52 223.57 383.69&#10;  A 0.54 0.54 0.0 0 1 222.92 384.17&#10;  C 217.74 383.17 214.25 383.04 210.85 381.05&#10;  C 207.28 378.96 203.49 378.60 199.72 376.82&#10;  C 195.27 374.71 186.33 370.27 179.94 367.81&#10;  C 173.25 365.23 168.04 361.58 161.33 358.97&#10;  C 151.30 355.05 139.60 348.90 129.87 342.01&#10;  C 125.03 338.58 121.85 334.76 116.63 329.33&#10;  Q 113.45 326.01 111.56 322.83&#10;  C 108.39 317.50 104.22 311.86 102.08 305.21&#10;  Q 101.14 302.30 100.14 293.81&#10;  Q 99.42 287.70 97.97 281.71&#10;  Q 98.08 281.10 97.93 280.46&#10;  L 98.07 279.28&#10;  Q 99.33 274.80 99.14 270.13&#10;  A 0.73 0.72 14.4 0 0 98.79 269.55&#10;  L 98.50 269.39&#10;  Q 99.16 269.20 99.34 268.51&#10;  C 99.87 266.54 100.11 264.26 100.06 261.92&#10;  Q 99.81 251.90 102.68 242.14&#10;  Q 103.83 248.01 102.94 254.53&#10;  Q 102.72 256.11 104.93 258.45&#10;  Q 111.59 244.00 116.67 236.16&#10;  C 122.18 227.65 126.69 221.07 131.08 215.11&#10;  Q 135.38 209.28 138.60 205.12&#10;  Q 141.51 201.37 146.61 195.53&#10;  Q 154.71 186.26 156.12 184.23&#10;  C 158.22 181.20 161.64 178.57 164.41 175.35&#10;  C 167.85 171.34 172.46 167.51 176.03 164.73&#10;  A 0.66 0.66 0.0 0 0 175.78 163.56&#10;  C 171.76 162.62 167.08 163.00 163.99 159.50&#10;  Q 167.44 157.98 168.33 154.97&#10;  Q 169.32 157.84 172.95 157.13&#10;  Q 174.02 156.92 174.04 155.83&#10;  Q 174.06 154.87 174.89 153.60&#10;  Q 175.69 153.95 177.03 153.85&#10;  Q 177.53 153.81 177.71 153.34&#10;  C 180.03 147.44 178.42 141.23 181.68 135.92&#10;  Q 183.31 133.26 187.32 130.04&#10;  Q 194.56 129.91 198.02 136.03&#10;  Q 200.05 139.63 200.08 135.50&#10;  Q 200.19 120.75 200.13 87.52&#10;  Q 200.12 86.70 200.89 85.86&#10;  Q 204.90 81.46 210.94 80.48&#10;  A 0.34 0.33 -2.0 0 1 211.33 80.84&#10;  Q 210.87 85.86 210.81 91.00&#10;  Q 210.56 114.98 210.77 137.25&#10;  Q 210.78 138.02 211.83 138.43&#10;  Z&#10;  M 184.95 155.10&#10;  Q 184.35 155.70 184.00 156.47&#10;  A 0.39 0.39 0.0 0 0 184.54 156.97&#10;  Q 189.74 154.15 191.45 151.19&#10;  C 192.58 149.25 194.71 141.73 192.69 139.16&#10;  Q 191.17 137.23 188.84 136.76&#10;  A 1.28 1.28 0.0 0 0 187.37 138.43&#10;  Q 188.77 142.56 187.53 147.01&#10;  Q 186.01 152.46 185.44 154.28&#10;  Q 185.30 154.75 184.95 155.10&#10;  Z&#10;  M 191.29 172.12&#10;  Q 191.53 172.31 192.40 171.90&#10;  Q 192.64 171.78 193.12 170.62&#10;  C 194.74 166.74 197.31 162.59 197.81 158.45&#10;  A 0.82 0.82 0.0 0 0 196.66 157.60&#10;  C 193.52 159.01 190.46 162.46 186.74 166.34&#10;  A 1.01 1.00 46.8 0 0 186.70 167.68&#10;  Q 188.67 170.04 191.29 172.12&#10;  Z&#10;  M 182.80 166.43&#10;  L 185.81 161.44&#10;  A 0.12 0.12 0.0 0 0 185.77 161.28&#10;  L 185.74 161.26&#10;  A 2.84 1.73 -58.9 0 0 182.79 162.80&#10;  L 182.60 163.13&#10;  A 2.84 1.73 -58.9 0 0 182.61 166.45&#10;  L 182.64 166.47&#10;  A 0.12 0.12 0.0 0 0 182.80 166.43&#10;  Z&#10;  M 209.06 184.93&#10;  L 209.31 190.48&#10;  A 2.47 2.47 0.0 0 0 211.89 192.84&#10;  L 217.10 192.60&#10;  A 7.96 4.63 -2.6 0 0 224.84 187.61&#10;  L 224.78 186.38&#10;  A 7.96 4.63 -2.6 0 0 216.62 182.11&#10;  L 211.42 182.35&#10;  A 2.47 2.47 0.0 0 0 209.06 184.93&#10;  Z&#10;  M 216.57 224.56&#10;  Q 219.88 229.32 224.25 230.07&#10;  Q 231.80 231.36 235.09 232.47&#10;  Q 226.29 232.52 215.26 233.34&#10;  Q 213.31 233.48 211.95 234.07&#10;  Q 211.44 234.28 211.68 234.77&#10;  C 214.19 239.94 216.99 244.12 221.78 247.26&#10;  C 232.32 254.16 244.77 258.01 257.18 259.08&#10;  Q 265.91 259.83 276.61 258.91&#10;  Q 280.29 258.60 282.26 258.98&#10;  Q 286.88 259.86 291.05 258.62&#10;  C 292.24 258.27 293.60 258.68 294.83 259.03&#10;  Q 295.31 259.17 295.79 259.02&#10;  C 297.97 258.30 299.73 257.55 302.23 257.49&#10;  Q 309.94 257.32 318.75 257.38&#10;  Q 321.35 257.40 325.18 258.13&#10;  Q 327.92 258.65 331.72 258.13&#10;  Q 334.07 257.81 331.97 256.69&#10;  Q 324.62 252.76 316.93 250.21&#10;  C 309.86 247.87 302.42 244.68 294.97 242.34&#10;  L 296.28 235.75&#10;  Q 307.69 238.78 318.48 244.34&#10;  Q 321.61 245.95 319.18 243.41&#10;  Q 318.68 242.89 316.61 241.39&#10;  Q 308.49 235.47 300.16 229.29&#10;  C 297.60 227.39 295.25 225.00 292.76 223.33&#10;  Q 289.37 221.08 286.56 218.91&#10;  Q 276.80 211.36 266.18 205.86&#10;  C 261.98 203.68 258.46 201.35 254.06 199.77&#10;  Q 245.27 196.61 240.87 195.41&#10;  Q 238.32 194.71 236.19 194.82&#10;  A 2.15 2.15 0.0 0 0 234.39 195.97&#10;  C 231.62 201.26 229.95 204.42 225.38 208.26&#10;  Q 219.65 213.07 217.66 214.33&#10;  C 214.02 216.61 212.31 220.48 211.40 223.99&#10;  A 0.73 0.73 0.0 0 0 212.16 224.90&#10;  L 216.57 224.56&#10;  Z&#10;  M 110.03 264.56&#10;  L 107.67 268.15&#10;  Q 107.62 268.23 107.63 268.50&#10;  Q 107.64 268.64 107.72 268.82&#10;  A 0.39 0.38 56.8 0 0 108.32 268.95&#10;  Q 109.86 267.63 110.34 264.86&#10;  Q 110.52 263.82 110.03 264.56&#10;  Z"/>
<path fill="#d8b94c" d="&#10;  M 279.94 99.90&#10;  Q 280.60 100.32 280.64 101.25&#10;  Q 280.85 106.73 279.99 110.77&#10;  Q 279.72 113.88 279.79 117.10&#10;  Q 279.91 122.89 279.91 123.42&#10;  C 279.82 135.62 279.85 146.03 279.67 159.98&#10;  Q 279.48 174.68 279.91 185.98&#10;  Q 280.09 190.59 279.26 192.42&#10;  C 277.61 196.06 273.42 198.71 269.57 196.01&#10;  C 268.24 195.07 268.14 192.22 268.14 191.00&#10;  Q 268.15 155.87 267.76 120.75&#10;  Q 267.73 117.19 266.89 114.86&#10;  L 267.55 106.29&#10;  L 279.94 99.90&#10;  Z"/>
<path fill="#d9af3a" d="&#10;  M 84.80 243.59&#10;  L 81.15 235.25&#10;  Q 82.74 230.11 80.98 225.24&#10;  Q 77.98 216.92 76.82 213.53&#10;  Q 70.76 195.80 64.31 178.20&#10;  C 62.23 172.53 57.72 161.92 53.41 153.20&#10;  Q 51.29 148.90 48.89 143.58&#10;  Q 46.71 138.73 41.14 129.12&#10;  C 38.85 125.16 37.62 120.69 35.31 117.22&#10;  Q 34.19 115.54 34.12 117.56&#10;  Q 34.04 119.90 34.73 122.46&#10;  Q 35.07 123.70 35.07 127.26&#10;  Q 35.07 129.84 36.34 132.57&#10;  Q 36.54 133.01 36.30 133.42&#10;  L 35.26 135.21&#10;  Q 34.98 135.71 34.99 136.27&#10;  Q 35.27 148.69 34.69 158.65&#10;  Q 34.37 164.14 34.39 166.88&#10;  Q 34.43 172.44 34.16 175.11&#10;  C 33.26 183.84 33.64 191.01 33.63 202.97&#10;  C 33.63 205.45 34.27 207.34 34.36 210.19&#10;  Q 34.69 220.26 38.28 229.90&#10;  C 39.42 232.96 41.51 236.30 42.97 238.85&#10;  Q 45.07 242.49 47.35 245.00&#10;  Q 52.53 250.70 58.82 255.21&#10;  L 59.19 260.57&#10;  Q 55.83 259.46 54.55 258.45&#10;  C 51.38 255.92 47.24 253.09 44.62 250.15&#10;  Q 36.98 241.58 32.38 230.29&#10;  Q 30.07 224.63 29.43 216.45&#10;  Q 28.45 203.74 28.99 188.50&#10;  Q 29.67 169.63 30.24 151.76&#10;  Q 30.36 147.99 30.39 147.00&#10;  Q 30.52 142.61 30.96 136.71&#10;  C 31.81 125.47 31.57 115.30 31.60 101.32&#10;  A 0.48 0.48 0.0 0 1 32.37 100.93&#10;  Q 33.02 101.41 33.44 102.18&#10;  C 35.00 104.99 37.24 108.71 38.92 112.61&#10;  Q 42.42 120.76 48.16 132.24&#10;  C 50.10 136.11 51.08 140.08 53.11 143.76&#10;  C 55.35 147.81 57.18 152.44 59.00 156.09&#10;  Q 68.11 174.39 74.56 195.03&#10;  Q 75.66 198.57 77.09 201.61&#10;  C 78.38 204.37 78.72 207.62 80.08 210.48&#10;  Q 81.54 213.57 83.79 219.50&#10;  C 85.32 223.55 85.50 227.51 87.11 231.68&#10;  C 88.45 235.13 86.29 240.44 84.80 243.59&#10;  Z"/>
<path fill="#c0912a" d="&#10;  M 81.15 235.25&#10;  L 84.80 243.59&#10;  Q 81.51 251.51 76.97 256.21&#10;  Q 74.00 259.28 68.24 259.88&#10;  Q 67.74 259.93 67.65 260.43&#10;  Q 66.86 264.55 67.13 266.78&#10;  Q 67.41 269.08 65.09 269.87&#10;  Q 64.58 270.04 64.49 270.57&#10;  C 64.28 271.69 64.60 272.94 64.34 274.13&#10;  C 63.38 278.52 63.30 285.01 62.93 288.29&#10;  Q 62.02 296.25 60.39 303.07&#10;  A 0.82 0.82 0.0 0 0 61.53 304.00&#10;  Q 62.55 303.54 62.85 303.12&#10;  C 65.10 300.05 66.55 298.01 69.67 295.22&#10;  C 75.02 290.44 79.50 285.40 84.50 281.34&#10;  C 87.22 279.13 92.23 273.29 98.50 269.39&#10;  L 98.79 269.55&#10;  A 0.73 0.72 14.4 0 1 99.14 270.13&#10;  Q 99.33 274.80 98.07 279.28&#10;  L 98.04 278.51&#10;  Q 97.94 277.67 97.47 278.69&#10;  L 75.12 299.69&#10;  A 0.93 0.93 0.0 0 0 74.89 300.68&#10;  L 75.40 302.04&#10;  A 1.33 1.33 0.0 0 1 74.28 303.83&#10;  C 71.11 304.13 69.75 304.72 67.51 307.19&#10;  C 64.18 310.86 62.43 312.97 59.43 315.88&#10;  Q 56.01 319.21 52.90 322.92&#10;  Q 50.45 325.84 46.68 330.19&#10;  Q 37.37 340.96 37.10 341.34&#10;  C 32.96 347.05 29.86 350.23 26.45 355.63&#10;  C 24.53 358.69 21.62 361.71 19.68 364.89&#10;  Q 16.55 370.04 12.21 376.27&#10;  C 11.16 377.78 10.64 379.57 10.00 380.95&#10;  A 1.12 1.08 3.8 0 1 9.29 381.55&#10;  Q 6.29 382.36 2.64 381.64&#10;  Q 1.83 381.48 2.22 380.76&#10;  Q 8.31 369.27 15.46 358.79&#10;  C 19.28 353.20 23.45 348.31 26.70 343.56&#10;  Q 28.75 340.56 31.95 337.02&#10;  C 34.88 333.78 36.39 330.91 39.08 328.37&#10;  Q 39.97 327.53 43.73 323.17&#10;  C 47.80 318.45 53.86 312.73 56.85 308.84&#10;  Q 57.33 308.22 59.13 306.83&#10;  Q 60.12 306.07 58.88 305.92&#10;  Q 57.94 305.80 56.47 306.54&#10;  A 0.68 0.67 -13.4 0 1 55.49 305.94&#10;  C 55.45 298.80 55.21 292.45 56.21 284.79&#10;  Q 57.11 277.86 58.05 270.94&#10;  Q 58.06 270.83 59.09 266.00&#10;  Q 59.70 263.16 59.19 260.57&#10;  L 58.82 255.21&#10;  Q 60.24 254.68 60.04 252.75&#10;  Q 58.16 234.94 57.25 229.38&#10;  C 56.50 224.85 56.87 220.65 55.85 215.87&#10;  C 54.85 211.16 54.50 205.65 53.74 201.39&#10;  Q 51.79 190.58 49.66 179.94&#10;  C 47.68 170.04 44.55 160.69 40.90 150.90&#10;  C 39.49 147.12 38.39 142.98 39.00 138.39&#10;  Q 39.43 135.15 38.64 131.46&#10;  A 0.49 0.49 0.0 0 1 39.37 130.94&#10;  Q 40.64 131.72 41.32 133.18&#10;  C 45.30 141.73 48.15 147.57 50.05 155.79&#10;  C 51.81 163.41 54.59 171.69 56.43 180.17&#10;  C 59.45 194.08 61.10 199.98 62.47 209.96&#10;  C 63.05 214.11 63.59 218.75 64.54 223.82&#10;  Q 65.37 228.20 65.72 232.42&#10;  C 66.41 240.45 67.02 246.35 67.18 254.07&#10;  A 0.71 0.71 0.0 0 0 68.06 254.74&#10;  Q 71.02 253.98 72.66 251.44&#10;  C 76.76 245.11 79.85 241.66 81.15 235.25&#10;  Z"/>
<path fill="#f1e464" d="&#10;  M 168.33 154.97&#10;  Q 167.44 157.98 163.99 159.50&#10;  C 161.65 157.65 162.59 154.08 164.08 152.08&#10;  C 164.52 151.49 164.87 150.61 164.94 149.88&#10;  Q 165.00 149.09 165.39 149.78&#10;  L 168.33 154.97&#10;  Z"/>
<path fill="#d8b94c" d="&#10;  M 114.45 205.94&#10;  Q 115.94 202.87 116.05 199.74&#10;  Q 124.65 194.82 121.80 185.69&#10;  A 1.73 1.72 61.8 0 0 119.06 184.86&#10;  L 117.27 186.34&#10;  Q 116.04 185.81 115.34 184.30&#10;  Q 115.13 183.84 114.68 183.59&#10;  L 111.94 182.00&#10;  A 1.62 1.61 36.3 0 1 111.55 179.51&#10;  L 111.91 179.12&#10;  Q 112.77 179.00 112.71 178.49&#10;  Q 112.43 176.02 111.33 174.06&#10;  Q 109.43 174.56 108.30 172.20&#10;  Q 112.01 170.26 115.53 170.99&#10;  C 117.30 171.36 117.59 173.22 117.81 174.60&#10;  Q 118.06 176.10 119.49 176.60&#10;  C 121.45 177.28 123.60 177.23 125.53 178.69&#10;  Q 129.34 181.58 129.57 186.73&#10;  C 129.74 190.65 129.72 195.37 127.72 198.65&#10;  C 124.46 203.98 121.72 206.89 114.45 205.94&#10;  Z"/>
<path fill="#c0912a" d="&#10;  M 108.30 172.20&#10;  Q 109.43 174.56 111.33 174.06&#10;  Q 109.80 174.19 110.00 175.75&#10;  Q 110.31 178.21 111.91 179.12&#10;  L 111.55 179.51&#10;  A 1.62 1.61 36.3 0 0 111.94 182.00&#10;  L 114.68 183.59&#10;  Q 115.13 183.84 115.34 184.30&#10;  Q 116.04 185.81 117.27 186.34&#10;  Q 115.16 188.67 115.32 191.06&#10;  Q 115.59 195.24 116.05 199.74&#10;  Q 115.94 202.87 114.45 205.94&#10;  Q 113.63 216.96 111.82 227.93&#10;  C 111.27 231.26 110.00 234.46 109.51 237.67&#10;  Q 108.33 245.38 107.95 246.70&#10;  Q 105.44 255.34 104.93 258.45&#10;  Q 102.72 256.11 102.94 254.53&#10;  Q 103.83 248.01 102.68 242.14&#10;  Q 104.34 238.34 104.93 234.62&#10;  Q 108.03 214.94 109.83 206.15&#10;  Q 109.93 205.66 109.49 205.41&#10;  C 104.21 202.34 98.16 200.01 97.05 192.88&#10;  Q 95.73 184.28 101.84 178.57&#10;  Q 103.27 177.23 104.97 175.30&#10;  Q 106.58 173.47 108.30 172.20&#10;  Z&#10;  M 110.34 188.89&#10;  C 107.06 189.16 105.16 187.00 106.11 183.70&#10;  Q 106.24 183.23 105.86 182.92&#10;  Q 105.24 182.41 104.36 182.88&#10;  Q 102.30 183.98 101.65 186.60&#10;  C 101.33 187.93 100.62 189.88 101.09 191.75&#10;  Q 102.65 197.94 108.75 199.78&#10;  A 1.02 1.01 -75.0 0 0 110.03 199.03&#10;  L 111.94 190.75&#10;  Q 112.41 188.73 110.34 188.89&#10;  Z&#10;  M 112.1635 186.8779&#10;  A 1.79 1.01 45.1 0 0 111.6154 184.8971&#10;  A 1.79 1.01 45.1 0 0 109.6365 184.3421&#10;  A 1.79 1.01 45.1 0 0 110.1846 186.3229&#10;  A 1.79 1.01 45.1 0 0 112.1635 186.8779&#10;  Z"/>
<path fill="#c0912a" d="&#10;  M 296.28 235.75&#10;  L 294.97 242.34&#10;  Q 287.73 240.38 268.16 236.35&#10;  Q 249.48 232.51 235.09 232.47&#10;  Q 231.80 231.36 224.25 230.07&#10;  Q 219.88 229.32 216.57 224.56&#10;  Q 236.81 223.63 249.76 225.17&#10;  Q 258.81 226.25 278.49 230.28&#10;  Q 282.97 231.20 287.47 232.74&#10;  Q 291.88 234.25 296.28 235.75&#10;  Z"/>
<path fill="#d9af3a" d="&#10;  M 109.88 278.48&#10;  C 113.40 275.05 117.92 275.35 122.54 276.35&#10;  Q 133.48 278.70 143.15 281.57&#10;  C 151.70 284.10 157.32 287.84 164.90 293.11&#10;  C 169.80 296.51 172.65 300.50 177.01 304.26&#10;  Q 178.52 305.56 181.48 309.10&#10;  Q 192.77 322.65 198.60 332.31&#10;  Q 198.62 332.35 203.29 338.92&#10;  Q 205.84 342.49 207.80 346.38&#10;  C 210.90 352.53 216.72 360.16 221.01 367.26&#10;  C 223.01 370.58 226.00 376.19 229.01 380.27&#10;  Q 231.11 383.12 232.13 384.78&#10;  A 0.47 0.47 0.0 0 1 231.69 385.50&#10;  C 224.36 384.98 223.81 378.86 219.87 373.39&#10;  Q 212.86 363.65 209.13 356.70&#10;  Q 206.95 352.63 202.86 345.94&#10;  Q 199.74 340.85 196.37 335.58&#10;  Q 193.50 331.09 189.30 325.80&#10;  Q 180.92 315.23 176.89 311.27&#10;  C 171.91 306.37 166.66 300.70 161.63 297.42&#10;  Q 158.70 295.51 152.37 291.80&#10;  Q 147.96 289.21 142.45 287.48&#10;  Q 128.03 282.95 122.17 281.96&#10;  Q 120.89 281.74 116.50 281.31&#10;  C 113.84 281.04 112.44 280.31 109.95 278.94&#10;  A 0.29 0.28 37.1 0 1 109.88 278.48&#10;  Z"/>
<path fill="#c0912a" d="&#10;  M 107.26 276.46&#10;  Q 107.95 278.04 109.11 278.63&#10;  Q 109.54 278.84 109.64 279.32&#10;  Q 109.87 280.35 110.38 280.87&#10;  Q 117.88 288.57 126.75 294.57&#10;  C 131.39 297.71 134.70 300.59 138.78 303.52&#10;  C 142.36 306.09 145.11 308.61 148.92 311.99&#10;  C 152.23 314.93 155.77 317.21 159.04 320.43&#10;  Q 161.36 322.72 164.78 325.29&#10;  C 169.40 328.77 173.98 333.79 179.06 337.87&#10;  Q 182.96 341.02 191.20 347.99&#10;  Q 195.38 351.53 197.92 354.40&#10;  C 200.54 357.36 203.96 359.66 206.87 363.03&#10;  Q 213.37 370.53 220.38 377.47&#10;  Q 219.82 377.57 220.05 378.51&#10;  Q 220.18 379.03 219.66 378.93&#10;  C 218.80 378.78 218.45 379.00 217.59 378.38&#10;  Q 215.76 377.05 214.03 377.21&#10;  Q 212.17 375.37 210.20 373.84&#10;  C 206.77 371.18 204.12 368.12 200.24 365.86&#10;  Q 199.25 365.29 195.13 360.44&#10;  C 193.13 358.09 189.65 356.62 187.09 354.35&#10;  Q 176.33 344.87 175.56 344.19&#10;  C 173.96 342.79 171.92 341.38 170.62 340.12&#10;  Q 163.42 333.14 156.04 327.64&#10;  Q 152.89 325.29 148.79 321.19&#10;  Q 143.04 315.41 135.82 310.92&#10;  C 133.14 309.26 131.64 306.90 128.74 305.08&#10;  C 124.20 302.25 119.93 297.89 116.51 295.22&#10;  Q 112.52 292.11 108.61 288.90&#10;  Q 107.67 288.13 106.80 289.36&#10;  Q 104.03 280.91 107.26 276.46&#10;  Z"/>
<path fill="#a47110" d="&#10;  M 98.04 278.51&#10;  L 97.47 278.69&#10;  Q 97.94 277.67 98.04 278.51&#10;  Z"/>
<path fill="#c0912a" d="&#10;  M 97.93 280.46&#10;  Q 98.08 281.10 97.97 281.71&#10;  Q 97.71 281.13 97.93 280.46&#10;  Z"/>
<ellipse fill="#a47110" cx="0.00" cy="0.00" transform="translate(219.66,395.15) rotate(-1.1)" rx="4.04" ry="0.50"/>
</svg>